# xmcd
#
# Track frame offsets:
#	150
#	22166
#	43448
#	57972
#	75539
#	90639
#	111978
#	127723
#	146690
#	159592
#	180183
#	194406
#	207234
#	226694
#	244115
#	261960
#	284808
#	302830
#	319693
#	337805
#
# Disc length: 4666 seconds
#
# Revision: 0
# Processed by: cddbd v1.5.1PL0 Copyright (c) Steve Scherf et al.
# Submitted via: audiograbber 1.83.01
#
DISCID=1c123814
DTITLE=Various Artist - Instrumental.
DYEAR=1900
DGENRE=
TTITLE0=Antonio Ventura. - Hotel California.
TTITLE1=Armik. - For Annete.
TTITLE2=Blonker. - Sidewalk Cafe.
TTITLE3=Blancaster Studio Orchestra. - Careless Whisper.
TTITLE4=Carlos Santana. - Europa.
TTITLE5=Carlos Santana. - Samba Pa Ti.
TTITLE6=Craig Chaquico. - Center Of Courage.
TTITLE7=Craig Chaquico. - Gypsy Night.
TTITLE8=Ennio Morricone. - Chi Mai.
TTITLE9=Fausto Papetti. - Johny Guitar.
TTITLE10=Francis Goya. - Nostalgia.
TTITLE11=Francis Goya. - Zurba's Dance.
TTITLE12=Francis Purell. - Besame Mucho.
TTITLE13=Francisco Garsia. - Besame Mucho.
TTITLE14=Georgio Moroder. - Love Theme From Flashdance.
TTITLE15=George Zamfir. - The Lonely Shepherd.
TTITLE16=Gypsy Kings. - Love and Liberty.
TTITLE17=Gypsy Kings. - Moorea.
TTITLE18=Govi. - Torero.
TTITLE19=James Last. - Rodrigo's Guitar Concerto.
EXTD=
EXTT0=
EXTT1=
EXTT2=
EXTT3=
EXTT4=
EXTT5=
EXTT6=
EXTT7=
EXTT8=
EXTT9=
EXTT10=
EXTT11=
EXTT12=
EXTT13=
EXTT14=
EXTT15=
EXTT16=
EXTT17=
EXTT18=
EXTT19=
PLAYORDER=
